# This file uses centimeters as units for non-parametric coordinates.

mtllib characterCollisionMesh.mtl
g playerCollision:default1
v 18.666808 5.725182 -14.142134
v 0.000000 5.725182 -19.999998
v -18.666808 5.725182 -14.142134
v -26.398855 5.725182 0.000000
v -18.666808 5.725182 14.142134
v 0.000000 5.725182 19.999998
v 18.666811 5.725182 14.142135
v 26.398858 5.725182 0.000000
v 18.666808 137.220904 -14.142134
v 0.000000 137.220904 -19.999998
v -18.666808 137.220904 -14.142134
v -26.398855 137.220904 0.000000
v -18.666808 137.220904 14.142134
v 0.000000 137.220904 19.999998
v 18.666811 137.220904 14.142135
v 26.398858 137.220904 0.000000
v 0.000000 5.725182 0.000000
v 0.000000 137.220904 0.000000
vt 0.610485 0.045765
vt 0.500000 0.000000
vt 0.389515 0.045765
vt 0.343750 0.156250
vt 0.389515 0.266735
vt 0.500000 0.312500
vt 0.610485 0.266735
vt 0.656250 0.156250
vt 0.375000 0.312500
vt 0.406250 0.312500
vt 0.437500 0.312500
vt 0.468750 0.312500
vt 0.500000 0.312500
vt 0.531250 0.312500
vt 0.562500 0.312500
vt 0.593750 0.312500
vt 0.625000 0.312500
vt 0.375000 0.688440
vt 0.406250 0.688440
vt 0.437500 0.688440
vt 0.468750 0.688440
vt 0.500000 0.688440
vt 0.531250 0.688440
vt 0.562500 0.688440
vt 0.593750 0.688440
vt 0.625000 0.688440
vt 0.610485 0.733265
vt 0.500000 0.687500
vt 0.389515 0.733265
vt 0.343750 0.843750
vt 0.389515 0.954235
vt 0.500000 1.000000
vt 0.610485 0.954235
vt 0.656250 0.843750
vt 0.500000 0.150000
vt 0.500000 0.837500
vn 0.299415 0.000000 -0.954123
vn 0.299415 0.000000 -0.954123
vn 0.299415 0.000000 -0.954123
vn 0.299415 0.000000 -0.954123
vn -0.299415 0.000000 -0.954123
vn -0.299415 0.000000 -0.954123
vn -0.299415 0.000000 -0.954123
vn -0.299415 0.000000 -0.954123
vn -0.877422 0.000000 -0.479720
vn -0.877422 0.000000 -0.479720
vn -0.877422 0.000000 -0.479720
vn -0.877422 0.000000 -0.479720
vn -0.877422 0.000000 0.479720
vn -0.877422 0.000000 0.479720
vn -0.877422 0.000000 0.479720
vn -0.877422 0.000000 0.479720
vn -0.299415 0.000000 0.954123
vn -0.299415 0.000000 0.954123
vn -0.299415 0.000000 0.954123
vn -0.299415 0.000000 0.954123
vn 0.299415 0.000000 0.954123
vn 0.299415 0.000000 0.954123
vn 0.299415 0.000000 0.954123
vn 0.299415 0.000000 0.954123
vn 0.877422 0.000000 0.479720
vn 0.877422 0.000000 0.479720
vn 0.877422 0.000000 0.479720
vn 0.877422 0.000000 0.479720
vn 0.877421 0.000000 -0.479720
vn 0.877421 0.000000 -0.479720
vn 0.877421 0.000000 -0.479720
vn 0.877421 0.000000 -0.479720
vn 0.000000 -1.000000 0.000000
vn 0.000000 -1.000000 0.000000
vn 0.000000 -1.000000 0.000000
vn 0.000000 -1.000000 0.000000
vn 0.000000 -1.000000 0.000000
vn 0.000000 -1.000000 0.000000
vn 0.000000 -1.000000 0.000000
vn 0.000000 -1.000000 0.000000
vn 0.000000 -1.000000 0.000000
vn 0.000000 -1.000000 0.000000
vn 0.000000 -1.000000 0.000000
vn 0.000000 -1.000000 0.000000
vn 0.000000 -1.000000 0.000000
vn 0.000000 -1.000000 0.000000
vn 0.000000 -1.000000 0.000000
vn 0.000000 -1.000000 0.000000
vn 0.000000 -1.000000 0.000000
vn 0.000000 -1.000000 0.000000
vn 0.000000 -1.000000 0.000000
vn 0.000000 -1.000000 0.000000
vn 0.000000 -1.000000 0.000000
vn 0.000000 -1.000000 0.000000
vn 0.000000 -1.000000 0.000000
vn 0.000000 -1.000000 0.000000
vn 0.000000 1.000000 0.000000
vn 0.000000 1.000000 0.000000
vn 0.000000 1.000000 0.000000
vn 0.000000 1.000000 0.000000
vn 0.000000 1.000000 0.000000
vn 0.000000 1.000000 0.000000
vn 0.000000 1.000000 0.000000
vn 0.000000 1.000000 0.000000
vn 0.000000 1.000000 0.000000
vn 0.000000 1.000000 0.000000
vn 0.000000 1.000000 0.000000
vn 0.000000 1.000000 0.000000
vn 0.000000 1.000000 0.000000
vn 0.000000 1.000000 0.000000
vn 0.000000 1.000000 0.000000
vn 0.000000 1.000000 0.000000
vn 0.000000 1.000000 0.000000
vn 0.000000 1.000000 0.000000
vn 0.000000 1.000000 0.000000
vn 0.000000 1.000000 0.000000
vn 0.000000 1.000000 0.000000
vn 0.000000 1.000000 0.000000
vn 0.000000 1.000000 0.000000
vn 0.000000 1.000000 0.000000
s off
g playerCollision:initialShadingGroup playerCollision:pCylinder1 playerCollision:polySurface1
usemtl initialShadingGroup
f 1/9/1 2/10/2 10/19/3 9/18/4
f 2/10/5 3/11/6 11/20/7 10/19/8
f 3/11/9 4/12/10 12/21/11 11/20/12
f 4/12/13 5/13/14 13/22/15 12/21/16
f 5/13/17 6/14/18 14/23/19 13/22/20
f 6/14/21 7/15/22 15/24/23 14/23/24
f 7/15/25 8/16/26 16/25/27 15/24/28
f 8/16/29 1/17/30 9/26/31 16/25/32
f 2/2/33 1/1/34 17/35/35
f 3/3/36 2/2/37 17/35/38
f 4/4/39 3/3/40 17/35/41
f 5/5/42 4/4/43 17/35/44
f 6/6/45 5/5/46 17/35/47
f 7/7/48 6/6/49 17/35/50
f 8/8/51 7/7/52 17/35/53
f 1/1/54 8/8/55 17/35/56
f 9/33/57 10/32/58 18/36/59
f 10/32/60 11/31/61 18/36/62
f 11/31/63 12/30/64 18/36/65
f 12/30/66 13/29/67 18/36/68
f 13/29/69 14/28/70 18/36/71
f 14/28/72 15/27/73 18/36/74
f 15/27/75 16/34/76 18/36/77
f 16/34/78 9/33/79 18/36/80
